<svg xmlns="http://www.w3.org/2000/svg" width="513.97" height="34.625" viewBox="0 0 513.97 34.625">
  <defs>
    <style>
      .cls-1 {
        fill: #46517b;
        fill-rule: evenodd;
      }
    </style>
  </defs>
  <path id="text.svg" class="cls-1" d="M1404.43,378.177h3.71l2.09-6.949h5.58l-2.12,6.949h3.74l2.09-6.949h6.12l0.71-4.033h-5.65l1.71-5.832h5.95l0.71-4.069h-5.47l1.79-6.048h-3.64l-1.82,6.048h-5.58l1.78-6.048h-3.63l-1.86,6.048h-5.94l-0.72,4.069h5.44l-1.72,5.832h-5.72l-0.71,4.033h5.25Zm6.95-10.982,1.75-5.832h5.54l-1.71,5.832h-5.58Zm44.87-9.612,0.6-3.421a32.688,32.688,0,0,1,1.14-4.608h-6.91a18.676,18.676,0,0,1-.27,4.572l-0.61,3.457h-8.64a38.806,38.806,0,0,1-4.34-.289l-1.07,6.049c1.35-.108,2.88-0.216,4.57-0.216h8.43c-1.4,5.473-4.47,10.441-12.17,13.645l4.73,4.033c8.81-4.825,11.99-10.8,13.52-17.678h7.28c1.62,0,3.54.108,4.39,0.18l1.06-5.977a38.624,38.624,0,0,1-4.44.253h-7.27Zm44.84-3.961a49.9,49.9,0,0,0-1.94-4.932l-3.63,1.368a38.2,38.2,0,0,1,1.89,5ZM1480.54,366.4c4.96-1.188,10.81-2.916,14.5-4.212,1.34-.468,3.28-1.224,4.97-1.872l-1.33-5.509a34.5,34.5,0,0,1-4.73,2.124,117.553,117.553,0,0,1-12.4,3.781l1.06-6.049a41.331,41.331,0,0,1,1.03-4.212h-6.4a40.7,40.7,0,0,1-.46,4.212l-3.44,19.478c-0.57,3.24,1.07,5.185,4.27,5.8a39.935,39.935,0,0,0,6.16.432,111.141,111.141,0,0,0,13.16-.72l1.12-6.373a65.774,65.774,0,0,1-12.9,1.3,28.492,28.492,0,0,1-3.79-.18c-1.49-.288-2.11-0.648-1.87-2.052Zm19.72-18.073a32.749,32.749,0,0,1,1.96,4.968l3.64-1.44a39.9,39.9,0,0,0-1.98-4.9Zm42.05,3.744a41.552,41.552,0,0,0-1.98-4.9l-3.63,1.369a31.782,31.782,0,0,1,1.97,4.968Zm-4.77,1.764a49.9,49.9,0,0,0-1.94-4.932l-3.63,1.368a38.2,38.2,0,0,1,1.89,5Zm-16.68,2.268c0.42-.756.83-1.44,1.16-2.052,0.46-.792,1.25-2.2,1.89-3.168l-6.5-1.332a18.888,18.888,0,0,1-1.6,4.14,30.433,30.433,0,0,1-2.98,4.861,36.085,36.085,0,0,1-7.43,7.236l4.89,3.313a41.182,41.182,0,0,0,7.04-7.489h6.7c-1.78,6.625-5.09,10.873-9.51,13.9a18.187,18.187,0,0,1-4.05,2.16l5.17,3.925c7.44-4.177,12.17-10.8,14.47-19.982h4.47c0.83,0,2.48,0,3.93.144l1.05-5.941a28.3,28.3,0,0,1-4.01.288h-14.69Zm25.05,11.882c1.5-.108,4.22-0.216,6.27-0.216h19.12c1.47,0,3.46.18,4.39,0.216l1.21-6.877c-1.06.072-2.85,0.252-4.47,0.252h-19.12c-1.77,0-4.76-.144-6.19-0.252Zm67.33-15.266a14.552,14.552,0,0,1-3.65.468h-5.98c0.71-.936,1.79-2.34,2.77-3.456l-5.95-1.944a23.488,23.488,0,0,1-2.67,4.284A44.212,44.212,0,0,1,1584.3,363.7l4.07,3.636a58.272,58.272,0,0,0,11.1-9.216h9.25a29.079,29.079,0,0,1-4.4,6.588c-1.94-1.26-3.93-2.448-5.53-3.384l-4.44,4.176c1.52,0.972,3.45,2.305,5.39,3.745a37.624,37.624,0,0,1-14.3,7.56l4.3,4.393a42.706,42.706,0,0,0,14.3-8.605,37.529,37.529,0,0,1,2.89,2.592l4.87-5.148c-0.78-.648-1.83-1.44-3.01-2.3a52.683,52.683,0,0,0,6.43-9.325,23.7,23.7,0,0,1,1.93-2.953Zm8.91,15.266c1.49-.108,4.21-0.216,6.27-0.216h19.11c1.48,0,3.46.18,4.39,0.216l1.22-6.877c-1.06.072-2.86,0.252-4.48,0.252h-19.11c-1.77,0-4.77-.144-6.19-0.252Zm50.73-3.2c-1.99,4.141-3.45,6.3-4.89,6.3-1.22,0-2.02-1.62-1.47-4.717,0.6-3.42,4.08-8.208,9.62-9.649A59.136,59.136,0,0,1,1672.88,364.783Zm3.55,15.41c9.56-1.548,14.96-7.057,16.28-14.546,1.43-8.1-3.22-14.365-12.29-14.365-9.55,0-18.12,7.2-19.62,15.661-1.07,6.085,1.47,10.874,5.86,10.874,4.21,0,8.26-4.789,11.64-11.918a85.323,85.323,0,0,0,3.73-9.289c3.93,0.973,5.59,4.249,4.78,8.857-0.83,4.681-4.41,7.849-9.15,8.965a28.055,28.055,0,0,1-3.6.648Zm48.85-.72c0.14-1.4.43-3.457,0.64-4.681l3.3-18.686c0.21-1.188.56-2.772,0.75-3.636-0.55.036-2.29,0.108-3.44,0.108h-18.36c-1.3,0-3.29-.108-4.71-0.252l-1.07,6.049c1.13-.072,3.16-0.144,4.78-0.144h15.59l-2.41,13.681h-16.02c-1.7,0-3.33-.108-4.72-0.216l-1.1,6.229c1.32-.144,3.61-0.253,4.98-0.253h15.8l-0.35,1.8h6.34Zm36.91,0c0.14-1.4.43-3.457,0.65-4.681l3.29-18.686c0.21-1.188.57-2.772,0.75-3.636-0.54.036-2.28,0.108-3.43,0.108h-18.37c-1.29,0-3.29-.108-4.7-0.252l-1.07,6.049c1.13-.072,3.16-0.144,4.78-0.144h15.59l-2.42,13.681h-16.02c-1.69,0-3.33-.108-4.71-0.216l-1.1,6.229c1.32-.144,3.61-0.253,4.97-0.253h15.81l-0.35,1.8h6.33Zm40.99-25.311a47.413,47.413,0,0,0-1.93-4.932l-3.63,1.368a41.286,41.286,0,0,1,1.89,5Zm-12.58,1.728c0.24-.936.45-1.944,0.67-2.952,0.18-.864.58-2.52,0.85-3.384h-6.41a30.131,30.131,0,0,1-.33,3.492c-0.17.972-.34,1.908-0.54,2.844h-4.5c-1.37,0-3.4-.108-5.03-0.288l-1,5.689c1.68-.144,3.99-0.18,5.11-0.18h4.07a24.37,24.37,0,0,1-7.33,11.521,28.864,28.864,0,0,1-6.03,4l4.35,4.105c7.51-4.789,11.79-10.513,14.7-19.622h7.02c-0.7,3.924-2.31,10.189-3.52,12.169a2.17,2.17,0,0,1-2.21,1.332,26.753,26.753,0,0,1-4.81-.54l-0.34,5.833c1.67,0.144,3.79.324,6.03,0.324a5.88,5.88,0,0,0,5.58-3.1c2.18-3.78,4.39-13.609,5.26-17.749a17.575,17.575,0,0,1,.6-1.981l-3.39-1.8a18.728,18.728,0,0,1-3.04.288h-5.76Zm11.75-7.02a32.794,32.794,0,0,1,1.97,4.968l3.64-1.44a43.26,43.26,0,0,0-1.98-4.9Zm33.78,2.3a16.26,16.26,0,0,1-4.41.54h-12.03a41.491,41.491,0,0,1-4.56-.288l-1.09,6.193c1.02-.072,3.04-0.289,4.66-0.289h11.2a33.951,33.951,0,0,1-6.48,8.137,50.9,50.9,0,0,1-16.51,10.117l3.7,4.717a61.608,61.608,0,0,0,14.95-9.829,55.452,55.452,0,0,1,6.87,9.865l5.77-4.357a73.93,73.93,0,0,0-8.02-10.045,71.243,71.243,0,0,0,7.11-9.5,27.558,27.558,0,0,1,1.94-2.628Zm39.07,11.485c-1.1.288-2.67,0.648-4.13,0.936-1.56.288-4.34,0.756-7.42,1.26l-0.06-4.932,6.7-1.044c1.17-.144,2.87-0.4,3.82-0.468l-0.04-5.689c-1.06.288-2.74,0.648-3.97,0.864-1.19.216-3.71,0.648-6.56,1.08,0-1.4-.03-2.484-0.01-3.024-0.02-.9.11-2.232,0.13-2.952l-6.33.972c0.13,0.9.22,1.8,0.29,2.88l0.04,2.988c-3.03.468-5.69,0.828-6.86,0.972-1.15.144-2.31,0.216-3.58,0.288l0.1,5.941c1.28-.324,2.33-0.576,3.67-0.828,1.01-.18,3.68-0.612,6.75-1.08l0.06,4.932c-3.48.54-6.62,1.008-8.25,1.26-1.25.18-3.09,0.4-4.11,0.432l0.21,5.761c0.87-.216,2.28-0.468,3.95-0.756,1.53-.288,4.72-0.828,8.24-1.4,0.02,2.736.06,5,.04,6.12,0.02,1.081-.13,2.377-0.2,3.781l6.45-1.08c-0.1-1.26-.22-2.593-0.28-3.673-0.04-1.224-.08-3.456-0.12-6.084,3.04-.468,5.78-0.9,7.41-1.152,1.4-.216,3.11-0.5,4.2-0.576Zm9.06,5.329c1.5-.108,4.22-0.216,6.27-0.216h19.12c1.47,0,3.46.18,4.39,0.216l1.21-6.877c-1.06.072-2.85,0.252-4.47,0.252h-19.12c-1.77,0-4.76-.144-6.19-0.252Z" transform="translate(-1401.28 -346.969)"/>
</svg>
